<?xml version="1.0" encoding="UTF-8"?>
<svg xmlns="http://www.w3.org/2000/svg" version="1.1" width="300" height="300" viewBox="0 0 300 300"><rect x="0" y="0" width="300" height="300" fill="#ffffff"/><g transform="scale(12)"><g transform="translate(0,0)"><path fill-rule="evenodd" d="M10 0L10 2L11 2L11 0ZM12 0L12 1L15 1L15 2L14 2L14 3L13 3L13 2L12 2L12 4L14 4L14 7L15 7L15 8L12 8L12 7L13 7L13 5L11 5L11 6L10 6L10 4L11 4L11 3L8 3L8 4L9 4L9 5L8 5L8 7L9 7L9 8L6 8L6 9L5 9L5 8L0 8L0 11L1 11L1 9L5 9L5 10L2 10L2 12L1 12L1 13L0 13L0 17L1 17L1 14L3 14L3 15L5 15L5 12L6 12L6 13L11 13L11 14L12 14L12 13L11 13L11 12L13 12L13 15L12 15L12 16L13 16L13 19L12 19L12 21L14 21L14 20L13 20L13 19L15 19L15 18L14 18L14 17L16 17L16 20L15 20L15 22L14 22L14 24L13 24L13 23L10 23L10 22L9 22L9 20L8 20L8 25L11 25L11 24L13 24L13 25L14 25L14 24L17 24L17 25L18 25L18 23L15 23L15 22L16 22L16 21L18 21L18 22L19 22L19 21L20 21L20 22L22 22L22 23L23 23L23 22L24 22L24 24L22 24L22 25L25 25L25 21L23 21L23 20L24 20L24 19L25 19L25 18L22 18L22 17L25 17L25 16L24 16L24 15L25 15L25 14L23 14L23 13L24 13L24 11L25 11L25 10L24 10L24 11L23 11L23 9L24 9L24 8L23 8L23 9L22 9L22 8L21 8L21 9L22 9L22 10L21 10L21 11L23 11L23 12L20 12L20 8L19 8L19 10L15 10L15 11L18 11L18 12L13 12L13 10L14 10L14 9L15 9L15 8L17 8L17 9L18 9L18 8L17 8L17 3L16 3L16 1L17 1L17 0L16 0L16 1L15 1L15 0ZM8 1L8 2L9 2L9 1ZM15 4L15 5L16 5L16 4ZM9 6L9 7L10 7L10 6ZM11 6L11 7L12 7L12 6ZM15 6L15 7L16 7L16 6ZM10 8L10 9L9 9L9 10L8 10L8 9L6 9L6 10L5 10L5 11L3 11L3 13L4 13L4 12L5 12L5 11L6 11L6 12L8 12L8 11L9 11L9 12L11 12L11 11L12 11L12 9L11 9L11 8ZM10 9L10 11L11 11L11 9ZM6 10L6 11L7 11L7 10ZM19 12L19 13L18 13L18 14L19 14L19 15L20 15L20 14L22 14L22 13L20 13L20 12ZM14 13L14 14L16 14L16 13ZM19 13L19 14L20 14L20 13ZM6 14L6 15L7 15L7 16L5 16L5 17L8 17L8 19L9 19L9 17L10 17L10 16L11 16L11 15L9 15L9 14L8 14L8 15L7 15L7 14ZM8 15L8 17L9 17L9 15ZM13 15L13 16L14 16L14 15ZM15 15L15 16L17 16L17 15ZM21 15L21 16L23 16L23 15ZM2 16L2 17L4 17L4 16ZM11 17L11 18L10 18L10 19L11 19L11 18L12 18L12 17ZM17 17L17 20L20 20L20 17ZM18 18L18 19L19 19L19 18ZM21 18L21 21L22 21L22 22L23 22L23 21L22 21L22 20L23 20L23 19L22 19L22 18ZM10 20L10 21L11 21L11 20ZM19 23L19 25L20 25L20 23ZM0 0L0 7L7 7L7 0ZM1 1L1 6L6 6L6 1ZM2 2L2 5L5 5L5 2ZM18 0L18 7L25 7L25 0ZM19 1L19 6L24 6L24 1ZM20 2L20 5L23 5L23 2ZM0 18L0 25L7 25L7 18ZM1 19L1 24L6 24L6 19ZM2 20L2 23L5 23L5 20Z" fill="#000000"/></g></g></svg>
